<?xml version="1.0" standalone="no"?>
<!DOCTYPE svg PUBLIC "-//W3C//DTD SVG 20010904//EN"
 "http://www.w3.org/TR/2001/REC-SVG-20010904/DTD/svg10.dtd">
<svg version="1.0" xmlns="http://www.w3.org/2000/svg"
 width="1080.000000pt" height="1080.000000pt" viewBox="0 0 1080.000000 1080.000000"
 preserveAspectRatio="xMidYMid meet">

<g transform="translate(0.000000,1080.000000) scale(0.100000,-0.100000)"
fill="#000000" stroke="none">
<path d="M4877 6550 c-124 -32 -187 -106 -187 -221 0 -117 46 -164 225 -228
123 -45 149 -65 147 -113 -2 -70 -97 -94 -153 -39 -16 16 -29 37 -29 45 0 13
-15 16 -95 16 l-95 0 0 -30 c0 -68 60 -143 145 -182 71 -32 209 -32 280 0 60
28 91 55 116 104 43 83 33 172 -27 238 -29 31 -59 48 -157 87 -67 26 -132 57
-144 70 -29 28 -29 64 0 91 41 39 116 23 138 -29 l11 -29 100 0 100 0 -7 33
c-18 81 -61 134 -136 167 -59 25 -173 35 -232 20z"/>
<path d="M3220 6166 l0 -386 195 0 c219 0 276 9 334 51 54 39 74 80 75 156 1
53 -3 67 -29 105 -17 23 -49 53 -70 65 -22 13 -35 23 -28 23 21 0 85 63 99 97
29 69 11 159 -43 209 -57 53 -81 58 -315 62 l-218 4 0 -386z m374 213 c33 -26
37 -88 6 -119 -17 -17 -33 -20 -110 -20 l-90 0 0 80 0 80 84 0 c69 0 88 -4
110 -21z m5 -294 c46 -23 56 -84 22 -126 -18 -22 -26 -24 -118 -24 l-98 0 -3
83 -3 82 86 0 c56 0 96 -5 114 -15z"/>
<path d="M5619 6536 c-99 -27 -201 -113 -240 -203 -46 -107 -42 -257 8 -360
35 -71 116 -145 191 -174 77 -30 214 -33 287 -5 103 39 195 132 211 214 l7 32
-96 0 c-95 0 -96 0 -117 -30 -55 -77 -183 -93 -257 -34 -57 47 -78 96 -78 184
0 88 21 137 78 183 71 58 198 44 253 -29 l26 -34 95 0 96 0 -7 33 c-10 51 -69
130 -127 170 -90 61 -222 82 -330 53z"/>
<path d="M6419 6523 c-22 -56 -252 -699 -257 -715 -4 -16 5 -18 91 -18 l95 0
22 65 22 65 143 0 143 0 22 -65 22 -65 94 0 c52 0 94 3 94 8 0 4 -59 175 -132
379 l-133 373 -108 0 -107 0 -11 -27z m162 -310 c23 -71 44 -134 47 -140 3
-10 -20 -13 -93 -13 -73 0 -96 3 -93 13 3 6 24 69 47 140 24 70 44 127 46 127
2 0 22 -57 46 -127z"/>
<path d="M7010 6166 l0 -386 90 0 90 0 0 145 0 145 23 0 c20 0 36 -22 103
-145 l78 -145 104 0 c57 0 101 3 99 8 -2 4 -41 72 -87 151 -65 113 -80 145
-69 152 8 5 19 9 24 9 21 0 86 63 107 103 23 47 28 142 8 192 -21 54 -62 97
-119 124 -54 25 -65 26 -253 29 l-198 4 0 -386z m357 215 c47 -25 54 -119 12
-157 -16 -15 -40 -20 -105 -23 l-84 -3 0 102 0 103 79 -6 c43 -3 87 -10 98
-16z"/>
<path d="M3940 6267 l0 -274 31 -61 c39 -78 86 -117 173 -144 159 -48 324 13
394 146 l27 51 3 278 3 277 -90 0 -90 0 -3 -257 c-3 -250 -4 -259 -26 -290
-39 -54 -128 -68 -189 -28 -48 32 -53 64 -53 330 l0 245 -90 0 -90 0 0 -273z"/>
<path d="M2830 4650 l0 -380 95 0 95 0 0 134 0 133 103 5 c114 5 172 25 221
74 97 97 85 288 -22 359 -70 46 -119 55 -314 55 l-178 0 0 -380z m345 220 c37
-14 59 -71 45 -116 -17 -51 -43 -64 -127 -64 l-73 0 0 95 0 95 64 0 c36 0 76
-4 91 -10z"/>
<path d="M3729 5003 c-22 -56 -252 -699 -257 -715 -4 -16 5 -18 91 -18 l95 0
22 65 22 65 143 0 143 0 22 -65 22 -65 94 0 c52 0 94 3 94 8 0 4 -59 175 -132
379 l-133 373 -108 0 -107 0 -11 -27z m162 -310 c23 -71 44 -134 47 -140 3
-10 -20 -13 -93 -13 -73 0 -96 3 -93 13 3 6 24 69 47 140 24 70 44 127 46 127
2 0 22 -57 46 -127z"/>
<path d="M4559 5016 c-99 -27 -201 -113 -240 -203 -46 -107 -42 -257 8 -360
35 -71 116 -145 191 -174 77 -30 214 -33 287 -5 103 39 195 132 211 214 l7 32
-96 0 c-95 0 -96 0 -117 -30 -55 -77 -183 -93 -257 -34 -57 47 -78 96 -78 184
0 88 21 137 78 183 71 58 198 44 253 -29 l26 -34 95 0 96 0 -7 33 c-10 51 -69
130 -127 170 -90 61 -222 82 -330 53z"/>
<path d="M5140 4645 l0 -385 95 0 95 0 0 385 0 385 -95 0 -95 0 0 -385z"/>
<path d="M5460 4645 l0 -385 235 0 235 0 0 75 0 75 -140 0 -140 0 0 85 0 85
125 0 125 0 0 70 0 70 -125 0 -125 0 0 80 0 80 140 0 140 0 0 75 0 75 -235 0
-235 0 0 -385z"/>
<path d="M6050 4645 l0 -385 95 0 95 0 2 233 3 233 151 -230 151 -231 91 -3
92 -3 0 386 0 385 -90 0 -90 0 -2 -237 -3 -237 -154 237 -154 237 -94 0 -93 0
0 -385z"/>
<path d="M6830 4955 l0 -75 100 0 100 0 0 -310 0 -310 95 0 95 0 0 310 0 310
100 0 100 0 0 75 0 75 -295 0 -295 0 0 -75z"/>
<path d="M7510 4645 l0 -385 235 0 235 0 0 75 0 75 -140 0 -140 0 0 85 0 85
125 0 125 0 0 70 0 70 -125 0 -125 0 0 80 0 80 140 0 140 0 0 75 0 75 -235 0
-235 0 0 -385z"/>
</g>
</svg>
