<?xml version="1.0" standalone="no"?>
<!DOCTYPE svg PUBLIC "-//W3C//DTD SVG 20010904//EN"
 "http://www.w3.org/TR/2001/REC-SVG-20010904/DTD/svg10.dtd">
<svg version="1.0" xmlns="http://www.w3.org/2000/svg"
 width="1080.000000pt" height="1080.000000pt" viewBox="0 0 1080.000000 1080.000000"
 preserveAspectRatio="xMidYMid meet">

<g transform="translate(0.000000,1080.000000) scale(0.100000,-0.100000)"
fill="#000000" stroke="none">
<path d="M5512 8025 c-79 -18 -139 -52 -190 -110 -46 -52 -66 -113 -65 -199 1
-154 84 -230 346 -316 126 -41 167 -74 167 -134 -1 -65 -38 -97 -114 -98 -59
-1 -105 26 -124 73 l-15 39 -135 0 -134 0 7 -37 c26 -140 126 -235 284 -269
207 -43 395 25 466 171 47 95 44 209 -8 286 -46 68 -120 109 -332 184 -52 19
-92 40 -114 62 -29 29 -33 38 -28 70 9 56 44 85 102 85 56 0 93 -23 115 -70
l15 -32 136 0 136 0 -8 46 c-12 62 -56 140 -98 173 -103 81 -255 109 -409 76z"/>
<path d="M1193 8015 c-183 -50 -319 -189 -364 -375 -19 -78 -17 -232 5 -305
41 -140 142 -263 261 -320 208 -98 464 -59 614 94 53 53 101 134 116 194 l7
27 -141 0 c-84 0 -141 -4 -141 -10 0 -5 -14 -25 -32 -45 -120 -137 -343 -98
-421 73 -31 67 -31 227 -1 292 51 111 119 155 239 155 69 0 86 -4 127 -27 25
-15 56 -44 68 -63 l22 -35 139 0 140 0 -6 23 c-43 150 -181 280 -340 322 -73
19 -222 19 -292 0z"/>
<path d="M2120 7518 c-101 -282 -185 -519 -188 -526 -3 -10 24 -12 128 -10
l133 3 30 88 29 87 197 0 197 0 29 -90 29 -90 133 0 c73 0 133 3 133 6 0 3
-84 239 -187 525 l-186 519 -147 0 -146 0 -184 -512z m398 25 l60 -183 -128 0
-129 0 13 43 c45 149 111 335 117 329 4 -4 34 -89 67 -189z"/>
<path d="M4477 7988 c-49 -130 -357 -993 -357 -1000 0 -4 58 -8 129 -8 l129 0
30 88 29 87 198 0 199 0 31 -87 30 -88 133 0 c80 0 132 4 130 10 -1 5 -86 241
-188 524 l-185 516 -146 0 -146 0 -16 -42z m226 -441 l64 -187 -130 0 c-99 0
-128 3 -124 13 2 6 31 92 63 189 32 97 59 176 61 175 1 -2 31 -87 66 -190z"/>
<path d="M8180 7513 c-102 -284 -186 -520 -188 -524 -2 -5 57 -9 130 -9 l134
0 29 90 29 90 197 0 197 0 29 -87 30 -88 131 -3 c76 -1 132 1 132 7 0 7 -339
957 -365 1024 -6 15 -23 17 -154 17 l-146 0 -185 -517z m456 -135 c5 -17 -5
-18 -125 -18 l-130 0 60 178 c32 97 62 184 65 192 5 12 70 -166 130 -352z"/>
<path d="M3100 7495 l0 -527 258 4 c208 4 267 8 312 22 175 56 293 174 344
346 22 73 22 236 0 310 -50 171 -168 289 -344 345 -45 15 -103 19 -312 23
l-258 4 0 -527z m487 290 c67 -20 134 -80 163 -147 33 -75 34 -211 1 -284 -48
-110 -130 -155 -293 -162 l-108 -5 0 307 0 306 93 0 c54 0 115 -6 144 -15z"/>
<path d="M6140 7920 l0 -100 140 0 140 0 0 -425 0 -425 125 0 125 0 0 425 0
425 140 0 140 0 0 100 0 100 -405 0 -405 0 0 -100z"/>
<path d="M7080 7496 l0 -526 130 0 130 0 0 201 0 200 32 -3 c30 -3 36 -13 137
-200 l106 -197 143 -1 143 0 -15 28 c-8 15 -61 108 -118 208 l-105 180 64 33
c72 38 106 73 141 149 21 48 24 64 20 140 -4 69 -10 98 -31 138 -32 64 -93
117 -166 146 -52 21 -74 23 -333 26 l-278 3 0 -525z m501 291 c49 -32 67 -88
48 -147 -23 -70 -51 -84 -180 -88 l-109 -4 0 131 0 131 104 0 c91 0 107 -3
137 -23z"/>
<path d="M9160 7496 l0 -526 125 0 125 0 0 200 0 200 33 0 c31 -1 34 -4 138
-198 l106 -197 141 -3 c78 -1 142 0 142 3 0 3 -52 95 -115 205 -63 109 -115
201 -115 204 0 3 20 14 44 24 62 28 121 85 152 149 31 62 37 166 16 240 -24
83 -118 174 -210 205 -24 8 -132 13 -309 15 l-273 4 0 -525z m511 277 c63 -63
44 -175 -36 -209 -22 -9 -69 -14 -130 -14 l-95 0 0 131 0 131 115 -4 c114 -3
115 -3 146 -35z"/>
<path d="M5310 5944 c-153 -30 -282 -115 -362 -239 -111 -171 -111 -419 0
-590 68 -106 161 -177 292 -221 83 -28 243 -26 332 4 225 77 358 267 358 509
0 167 -43 277 -149 384 -102 102 -208 148 -356 154 -49 2 -101 1 -115 -1z
m174 -238 c97 -30 165 -110 186 -221 29 -153 -32 -300 -147 -356 -68 -32 -179
-33 -245 -1 -56 27 -103 78 -131 141 -31 68 -30 217 1 287 58 129 198 191 336
150z"/>
<path d="M1880 3320 l0 -530 125 0 125 0 0 189 0 188 138 5 c111 4 148 10 197
28 79 30 164 114 188 184 21 62 22 176 2 243 -20 67 -89 144 -160 177 -75 36
-159 46 -402 46 l-213 0 0 -530z m465 306 c45 -19 68 -58 69 -115 2 -101 -41
-133 -186 -139 l-98 -4 0 136 0 136 90 0 c56 0 104 -5 125 -14z"/>
<path d="M3111 3828 c-5 -13 -85 -237 -179 -498 -94 -261 -175 -487 -181 -502
l-11 -28 134 0 133 0 30 88 30 87 198 0 198 0 30 -87 29 -88 133 0 134 0 -37
103 c-20 56 -104 291 -187 522 l-151 420 -147 3 c-145 2 -147 2 -156 -20z
m219 -454 c33 -98 60 -182 60 -186 0 -4 -56 -8 -125 -8 -69 0 -125 3 -125 7 0
16 122 374 126 370 3 -2 31 -85 64 -183z"/>
<path d="M4234 3832 c-155 -46 -274 -159 -334 -317 -31 -83 -38 -243 -16 -339
42 -178 160 -308 334 -368 56 -19 86 -23 182 -22 123 1 188 18 275 69 84 49
178 170 205 264 l9 31 -138 0 -137 0 -31 -43 c-44 -63 -108 -92 -198 -91 -85
0 -136 24 -189 85 -53 62 -69 122 -64 237 5 111 22 153 85 214 72 70 185 88
278 44 46 -21 97 -67 107 -96 2 -7 51 -10 145 -8 l142 3 -24 59 c-49 121 -156
223 -282 268 -82 30 -264 35 -349 10z"/>
<path d="M5050 3315 l0 -525 125 0 125 0 0 525 0 525 -125 0 -125 0 0 -525z"/>
<path d="M5490 3315 l0 -525 320 0 320 0 0 100 0 100 -192 2 -193 3 -3 118 -3
117 171 0 170 0 0 100 0 100 -170 0 -170 0 0 105 0 105 195 0 195 0 0 100 0
100 -320 0 -320 0 0 -525z"/>
<path d="M6300 3315 l0 -525 125 0 125 0 2 322 3 322 210 -321 210 -322 128
-1 127 0 0 525 0 525 -125 0 -125 0 0 -322 c0 -240 -3 -319 -11 -311 -7 7
-102 150 -213 320 l-201 308 -128 3 -127 3 0 -526z"/>
<path d="M7360 3740 l0 -100 140 0 140 0 0 -425 0 -425 125 0 125 0 0 425 0
425 140 0 140 0 0 100 0 100 -405 0 -405 0 0 -100z"/>
<path d="M8300 3315 l0 -525 320 0 320 0 0 100 0 100 -192 2 -193 3 -3 118 -3
117 176 0 176 0 -3 98 -3 97 -172 3 -173 2 0 105 0 105 195 0 195 0 0 100 0
100 -320 0 -320 0 0 -525z"/>
</g>
</svg>
