<?xml version="1.0" standalone="no"?>
<!DOCTYPE svg PUBLIC "-//W3C//DTD SVG 20010904//EN"
 "http://www.w3.org/TR/2001/REC-SVG-20010904/DTD/svg10.dtd">
<svg version="1.0" xmlns="http://www.w3.org/2000/svg"
 width="1080.000000pt" height="1080.000000pt" viewBox="0 0 1080.000000 1080.000000"
 preserveAspectRatio="xMidYMid meet">

<g transform="translate(0.000000,1080.000000) scale(0.100000,-0.100000)"
fill="#000000" stroke="none">
<path d="M3267 7300 c-193 -49 -313 -241 -279 -446 22 -134 95 -232 212 -288
59 -28 74 -31 165 -31 88 1 107 4 160 28 72 34 138 95 171 159 39 77 38 78
-71 78 l-96 0 -32 -36 c-38 -44 -81 -64 -137 -64 -111 0 -190 91 -190 220 0
66 17 116 53 157 75 86 199 85 274 -1 l32 -36 96 0 c69 0 95 3 95 13 0 29 -51
115 -91 154 -66 63 -144 95 -242 99 -45 2 -99 -1 -120 -6z"/>
<path d="M3840 6925 l0 -385 235 0 235 0 0 75 0 75 -140 0 -140 0 0 85 0 85
125 0 125 0 0 70 0 70 -125 0 -125 0 0 80 0 80 140 0 140 0 0 75 0 75 -235 0
-235 0 0 -385z"/>
<path d="M4430 6925 l0 -385 90 0 90 0 0 236 c0 129 4 233 8 230 5 -3 76 -108
158 -235 l149 -230 93 -1 92 0 0 385 0 385 -90 0 -90 0 0 -236 c0 -129 -3
-233 -8 -231 -4 3 -75 109 -157 236 l-150 231 -92 0 -93 0 0 -385z"/>
<path d="M5210 7235 l0 -75 100 0 100 0 0 -310 0 -310 95 0 95 0 0 310 0 310
100 0 100 0 0 75 0 75 -295 0 -295 0 0 -75z"/>
<path d="M5890 6925 l0 -385 95 0 95 0 0 145 c0 144 0 145 23 145 18 0 35 -25
101 -145 l78 -145 105 0 105 0 -14 23 c-53 80 -161 281 -153 284 40 14 94 55
119 91 25 35 31 55 34 112 8 131 -62 222 -189 249 -28 6 -129 11 -224 11
l-175 0 0 -385z m375 205 c30 -29 39 -64 25 -106 -16 -47 -53 -64 -140 -64
l-70 0 0 101 0 102 81 -6 c64 -4 86 -10 104 -27z"/>
<path d="M6689 6930 l-136 -380 96 0 97 0 20 63 20 62 145 3 145 3 20 -63 20
-63 97 -3 c53 -1 97 1 97 5 0 4 -60 175 -133 378 l-133 370 -110 3 -109 3
-136 -381z m331 -97 c0 -10 -24 -13 -90 -13 -49 0 -90 4 -90 8 0 8 73 230 86
262 6 14 94 -228 94 -257z"/>
<path d="M7400 6925 l0 -385 215 0 215 0 0 70 0 70 -120 0 -120 0 0 315 0 315
-95 0 -95 0 0 -385z"/>
<path d="M5690 5784 c-191 -51 -307 -235 -279 -441 12 -88 44 -149 114 -219
81 -82 146 -108 270 -108 70 0 103 5 147 23 81 31 159 106 200 189 31 64 33
72 33 182 0 107 -2 119 -29 172 -85 168 -272 251 -456 202z m197 -175 c148
-71 147 -337 -1 -409 -55 -26 -127 -26 -183 1 -147 71 -147 335 -1 408 56 27
128 28 185 0z"/>
<path d="M4650 5405 l0 -387 193 4 c211 5 260 16 346 78 82 60 141 187 141
305 0 118 -59 245 -141 305 -86 62 -135 73 -346 78 l-193 4 0 -387z m402 189
c23 -16 52 -49 65 -74 21 -39 24 -56 21 -126 -2 -68 -7 -87 -31 -122 -39 -59
-93 -84 -194 -90 l-83 -5 0 228 0 227 90 -4 c80 -4 95 -8 132 -34z"/>
<path d="M5548 4508 l-128 -61 0 -63 c0 -63 0 -63 24 -54 64 24 222 93 229 99
4 5 7 38 5 74 l-3 67 -127 -62z"/>
<path d="M3948 4266 c-130 -35 -202 -151 -169 -273 23 -83 78 -125 238 -177
94 -31 133 -62 133 -105 0 -38 -40 -71 -87 -71 -47 0 -72 16 -89 56 l-14 34
-95 0 c-106 0 -105 1 -83 -74 17 -57 82 -119 149 -142 65 -22 196 -25 253 -5
51 18 115 76 137 126 25 54 24 135 -1 186 -24 45 -85 88 -170 119 -30 11 -73
27 -96 35 -58 22 -84 49 -84 90 0 40 29 65 76 65 37 0 84 -34 84 -61 0 -17 8
-19 100 -19 98 0 100 1 100 23 0 42 -49 123 -91 152 -73 51 -191 68 -291 41z"/>
<path d="M7320 4266 c-115 -31 -202 -102 -252 -204 -31 -63 -33 -72 -33 -177
0 -98 3 -116 26 -166 71 -151 225 -240 392 -226 275 23 435 321 310 576 -77
158 -271 245 -443 197z m190 -178 c76 -39 117 -125 107 -229 -8 -93 -48 -154
-120 -184 -101 -42 -214 2 -259 103 -26 59 -26 167 1 219 22 44 66 88 101 102
45 18 123 13 170 -11z"/>
<path d="M5445 4258 c-2 -7 -63 -177 -135 -377 -71 -200 -130 -366 -130 -368
0 -1 42 -3 94 -3 l95 0 20 55 c12 31 21 60 21 66 0 6 55 9 147 7 l147 -3 20
-62 20 -63 98 0 98 0 -36 98 c-19 53 -80 224 -136 380 l-101 282 -109 0 c-78
0 -110 -4 -113 -12z m164 -338 c22 -69 41 -128 41 -133 0 -4 -40 -7 -90 -7
-64 0 -90 4 -90 12 0 25 85 267 91 260 4 -4 25 -63 48 -132z"/>
<path d="M6030 3885 l0 -385 90 0 90 0 0 146 0 145 26 -3 c22 -3 37 -23 103
-145 l76 -142 103 -1 c56 0 102 2 102 4 0 3 -38 71 -85 151 -47 81 -85 148
-85 150 0 1 12 6 26 9 14 4 45 25 70 48 100 92 94 258 -12 346 -60 49 -126 62
-327 62 l-177 0 0 -385z m332 225 c21 -6 44 -21 53 -33 23 -33 19 -91 -9 -124
-23 -26 -31 -28 -110 -32 l-86 -3 0 94 c0 52 3 98 7 101 10 11 103 8 145 -3z"/>
<path d="M6740 3885 l0 -385 90 0 90 0 0 385 0 385 -90 0 -90 0 0 -385z"/>
<path d="M3020 4008 c0 -299 8 -341 76 -417 63 -70 126 -95 239 -95 76 -1 98
3 146 25 97 46 149 113 169 220 6 28 10 157 10 285 l0 234 -95 0 -94 0 -3
-266 -3 -266 -32 -28 c-65 -58 -168 -48 -208 20 -18 32 -20 54 -23 288 l-4
252 -89 0 -89 0 0 -252z"/>
<path d="M4460 3987 l0 -274 31 -61 c39 -78 86 -117 173 -144 159 -48 324 13
394 146 l27 51 3 278 3 277 -90 0 -90 0 -3 -257 c-3 -250 -4 -259 -26 -290
-39 -54 -128 -68 -189 -28 -48 32 -53 64 -53 330 l0 245 -90 0 -90 0 0 -273z"/>
</g>
</svg>
