<?xml version="1.0" standalone="no"?>
<!DOCTYPE svg PUBLIC "-//W3C//DTD SVG 20010904//EN"
 "http://www.w3.org/TR/2001/REC-SVG-20010904/DTD/svg10.dtd">
<svg version="1.0" xmlns="http://www.w3.org/2000/svg"
 width="1080.000000pt" height="1080.000000pt" viewBox="0 0 1080.000000 1080.000000"
 preserveAspectRatio="xMidYMid meet">

<g transform="translate(0.000000,1080.000000) scale(0.100000,-0.100000)"
fill="#000000" stroke="none">
<path d="M8330 5993 c-40 -15 -80 -69 -94 -125 -6 -27 -5 -28 38 -28 36 0 47
5 60 25 9 14 26 25 37 25 11 0 42 -11 69 -25 27 -14 61 -25 76 -25 64 0 126
56 140 129 6 31 6 31 -36 31 -33 0 -46 -5 -62 -25 -11 -14 -26 -25 -34 -25 -8
0 -37 11 -64 25 -46 24 -96 30 -130 18z"/>
<path d="M1820 5784 c-108 -29 -198 -102 -245 -198 -118 -241 19 -521 278
-567 177 -32 349 57 425 219 24 51 27 69 27 167 0 98 -3 116 -27 167 -82 175
-271 262 -458 212z m177 -165 c38 -14 81 -56 105 -103 39 -77 22 -213 -35
-275 -67 -73 -207 -80 -280 -13 -77 69 -87 242 -20 331 46 60 154 89 230 60z"/>
<path d="M8350 5786 c-115 -31 -202 -102 -252 -204 -31 -63 -33 -72 -33 -177
0 -98 3 -116 26 -166 71 -151 225 -240 392 -226 275 23 435 321 310 576 -77
158 -271 245 -443 197z m190 -178 c76 -39 117 -125 107 -229 -8 -93 -48 -154
-120 -184 -101 -42 -214 2 -259 103 -26 59 -26 167 1 219 22 44 66 88 101 102
45 18 123 13 170 -11z"/>
<path d="M9689 5787 c-124 -35 -195 -146 -169 -263 21 -91 72 -133 226 -184
114 -38 144 -60 144 -103 0 -38 -7 -50 -37 -66 -51 -27 -117 -5 -135 46 l-12
33 -98 0 c-106 0 -105 1 -88 -59 36 -128 200 -205 363 -171 124 25 199 112
198 228 0 112 -47 160 -217 222 -119 44 -154 70 -154 113 0 82 130 90 160 11
9 -23 13 -24 109 -24 l99 0 -9 43 c-24 108 -118 176 -255 183 -47 2 -97 -1
-125 -9z"/>
<path d="M979 5776 c-99 -27 -201 -113 -240 -203 -46 -107 -42 -257 8 -360 35
-71 116 -145 191 -174 77 -30 214 -33 287 -5 103 39 195 132 211 214 l7 32
-96 0 c-95 0 -96 0 -117 -30 -55 -77 -183 -93 -257 -34 -57 47 -78 96 -78 184
0 88 21 137 78 183 71 58 198 44 253 -29 l26 -34 95 0 96 0 -7 33 c-10 51 -69
130 -127 170 -90 61 -222 82 -330 53z"/>
<path d="M2420 5405 l0 -385 90 0 90 0 2 237 3 236 155 -236 155 -237 93 0 92
0 0 385 0 385 -90 0 -90 0 0 -235 c0 -129 -3 -235 -7 -234 -5 0 -76 105 -158
232 l-151 232 -92 3 -92 3 0 -386z"/>
<path d="M3240 5405 l0 -385 90 0 90 0 0 155 0 155 115 0 115 0 0 70 0 69
-112 3 -113 3 -3 83 -3 82 156 0 155 0 0 75 0 75 -245 0 -245 0 0 -385z"/>
<path d="M3830 5405 l0 -385 95 0 95 0 0 385 0 385 -95 0 -95 0 0 -385z"/>
<path d="M4378 5771 c-162 -53 -253 -189 -252 -376 1 -125 27 -190 108 -271
83 -82 146 -108 276 -108 87 -1 101 2 162 31 80 38 144 99 181 173 23 46 27
66 27 142 l0 88 -205 0 -206 0 3 -67 3 -68 118 -3 118 -3 -23 -40 c-28 -51
-62 -75 -121 -89 -170 -38 -298 118 -247 302 38 135 226 185 319 84 23 -25 29
-26 123 -26 59 0 98 4 98 10 0 24 -45 103 -80 138 -20 22 -63 52 -94 67 -77
38 -221 45 -308 16z"/>
<path d="M5750 5405 l0 -385 90 0 90 0 0 146 0 145 26 -3 c22 -3 37 -23 103
-145 l76 -142 103 -1 c56 0 102 2 102 4 0 3 -38 71 -85 151 -47 81 -85 148
-85 150 0 1 12 6 26 9 14 4 45 25 70 48 100 92 94 258 -12 346 -60 49 -126 62
-327 62 l-177 0 0 -385z m332 225 c21 -6 44 -21 53 -33 23 -33 19 -91 -9 -124
-23 -26 -31 -28 -110 -32 l-86 -3 0 94 c0 52 3 98 7 101 10 11 103 8 145 -3z"/>
<path d="M6587 5523 c-53 -148 -114 -319 -136 -381 l-41 -113 97 3 97 3 20 63
20 62 146 0 146 0 20 -62 20 -63 98 -3 c77 -2 97 0 94 10 -3 7 -62 171 -131
363 -69 193 -129 358 -132 368 -6 15 -22 17 -115 17 l-107 0 -96 -267z m251
-71 c23 -70 42 -133 42 -140 0 -8 -26 -12 -90 -12 -49 0 -90 3 -90 6 0 16 84
274 90 274 3 0 25 -58 48 -128z"/>
<path d="M7500 5775 c-76 -21 -157 -79 -202 -145 -96 -140 -88 -349 18 -488
36 -46 119 -99 184 -115 l55 -14 3 -67 3 -66 44 0 c56 0 75 -8 75 -30 0 -25
-19 -30 -111 -30 l-79 0 0 -50 0 -50 103 0 c155 0 216 38 217 133 0 49 -48
102 -103 112 -30 6 -37 12 -37 31 0 17 6 24 20 24 41 0 131 43 177 85 43 38
103 134 103 164 0 7 -35 11 -97 11 l-98 0 -29 -36 c-51 -65 -142 -82 -221 -44
-70 34 -105 100 -105 200 0 100 35 166 105 200 79 38 170 21 221 -44 l29 -36
98 0 c62 0 97 4 97 11 0 5 -11 34 -25 64 -31 65 -98 128 -172 162 -70 32 -192
40 -273 18z"/>
<path d="M8940 5405 l0 -385 235 0 235 0 0 75 0 75 -140 0 -140 0 0 85 0 85
125 0 125 0 0 70 0 70 -125 0 -125 0 0 80 0 80 140 0 140 0 0 75 0 75 -235 0
-235 0 0 -385z"/>
<path d="M4982 5503 c3 -259 4 -281 24 -324 42 -91 116 -143 230 -162 112 -19
225 15 295 90 74 77 74 76 77 391 l3 282 -90 0 -91 0 0 -247 c0 -216 -2 -253
-18 -283 -47 -95 -204 -88 -239 11 -8 23 -12 116 -12 277 l-1 242 -91 0 -90 0
3 -277z"/>
</g>
</svg>
