<?xml version="1.0" standalone="no"?>
<!DOCTYPE svg PUBLIC "-//W3C//DTD SVG 20010904//EN"
 "http://www.w3.org/TR/2001/REC-SVG-20010904/DTD/svg10.dtd">
<svg version="1.0" xmlns="http://www.w3.org/2000/svg"
 width="1080.000000pt" height="1080.000000pt" viewBox="0 0 1080.000000 1080.000000"
 preserveAspectRatio="xMidYMid meet">

<g transform="translate(0.000000,1080.000000) scale(0.100000,-0.100000)"
fill="#000000" stroke="none">
<path d="M3376 7310 c-64 -17 -155 -71 -196 -117 -104 -118 -129 -294 -62
-438 42 -88 91 -139 180 -183 72 -35 81 -37 171 -37 87 0 102 3 162 31 91 43
142 93 184 178 100 202 26 435 -169 532 -61 30 -86 36 -152 39 -44 3 -96 0
-118 -5z m179 -179 c83 -38 119 -109 113 -226 -3 -62 -8 -81 -33 -117 -75
-107 -235 -117 -318 -19 -66 79 -63 244 6 320 53 58 156 77 232 42z"/>
<path d="M6010 7306 c-115 -31 -202 -102 -252 -204 -31 -63 -33 -72 -33 -177
0 -98 3 -116 26 -166 71 -151 225 -240 392 -226 275 23 435 321 310 576 -77
158 -271 245 -443 197z m190 -178 c76 -39 117 -125 107 -229 -8 -93 -48 -154
-120 -184 -101 -42 -214 2 -259 103 -26 59 -26 167 1 219 22 44 66 88 101 102
45 18 123 13 170 -11z"/>
<path d="M2110 6925 l0 -385 95 0 95 0 1 228 0 227 60 -160 c33 -88 71 -190
85 -227 l26 -68 73 0 73 0 14 38 c8 20 46 121 84 225 l69 187 3 -225 2 -225
95 0 95 0 -2 383 -3 382 -109 0 -108 0 -105 -263 c-58 -145 -107 -262 -108
-260 -2 2 -51 120 -108 263 l-106 260 -110 3 -111 3 0 -386z"/>
<path d="M3970 6925 l0 -385 90 0 90 0 0 238 0 237 156 -237 157 -238 93 0 94
0 0 385 0 385 -95 0 -95 0 -2 -235 -3 -234 -151 232 -152 232 -91 3 -91 3 0
-386z"/>
<path d="M4790 6925 l0 -385 90 0 90 0 0 385 0 385 -90 0 -90 0 0 -385z"/>
<path d="M5060 7235 l0 -75 105 0 105 0 0 -310 0 -310 90 0 90 0 0 310 0 310
100 0 100 0 0 75 0 75 -295 0 -295 0 0 -75z"/>
<path d="M6600 6925 l0 -385 95 0 95 0 0 145 c0 144 0 145 23 145 18 0 35 -25
101 -145 l78 -145 105 0 105 0 -14 23 c-53 80 -161 281 -153 284 40 14 94 55
119 91 25 35 31 55 34 112 8 131 -62 222 -189 249 -28 6 -129 11 -224 11
l-175 0 0 -385z m375 205 c30 -29 39 -64 25 -106 -16 -47 -53 -64 -140 -64
l-70 0 0 101 0 102 81 -6 c64 -4 86 -10 104 -27z"/>
<path d="M7529 7283 c-22 -56 -252 -699 -257 -715 -4 -16 5 -18 91 -18 l95 0
22 65 22 65 143 0 143 0 22 -65 22 -65 94 0 c52 0 94 3 94 8 0 4 -59 175 -132
379 l-133 373 -108 0 -107 0 -11 -27z m162 -310 c23 -71 44 -134 47 -140 3
-10 -20 -13 -93 -13 -73 0 -96 3 -93 13 3 6 24 69 47 140 24 70 44 127 46 127
2 0 22 -57 46 -127z"/>
<path d="M8110 6925 l0 -385 95 0 95 0 0 145 c0 144 0 145 23 145 18 0 35 -25
101 -145 l78 -145 105 0 105 0 -14 23 c-53 80 -161 281 -153 284 40 14 94 55
119 91 25 35 31 55 34 112 8 131 -62 222 -189 249 -28 6 -129 11 -224 11
l-175 0 0 -385z m375 205 c30 -29 39 -64 25 -106 -16 -47 -53 -64 -140 -64
l-70 0 0 101 0 102 81 -6 c64 -4 86 -10 104 -27z"/>
<path d="M4960 5784 c-191 -51 -307 -235 -279 -441 12 -88 44 -149 114 -219
81 -82 146 -108 270 -108 70 0 103 5 147 23 81 31 159 106 200 189 31 64 33
72 33 182 0 107 -2 119 -29 172 -85 168 -272 251 -456 202z m197 -175 c148
-71 147 -337 -1 -409 -55 -26 -127 -26 -183 1 -147 71 -147 335 -1 408 56 27
128 28 185 0z"/>
<path d="M5718 5786 c-130 -35 -202 -151 -169 -273 23 -83 78 -125 238 -177
94 -31 133 -62 133 -105 0 -38 -40 -71 -87 -71 -47 0 -72 16 -89 56 l-14 34
-95 0 c-106 0 -105 1 -83 -74 17 -57 82 -119 149 -142 65 -22 196 -25 253 -5
51 18 115 76 137 126 25 54 24 135 -1 186 -24 45 -85 88 -170 119 -30 11 -73
27 -96 35 -58 22 -84 49 -84 90 0 40 29 65 76 65 37 0 84 -34 84 -61 0 -17 8
-19 100 -19 98 0 100 1 100 23 0 42 -49 123 -91 152 -73 51 -191 68 -291 41z"/>
<path d="M7927 4266 c-137 -37 -204 -153 -167 -288 14 -51 84 -110 162 -137
138 -48 154 -56 181 -82 34 -34 34 -63 2 -94 -47 -48 -143 -23 -159 40 -6 25
-8 25 -101 25 l-95 0 0 -27 c0 -16 9 -46 19 -68 51 -113 219 -172 371 -129
175 49 240 244 120 361 -30 30 -94 60 -222 107 -60 22 -85 43 -94 78 -9 38 32
78 81 78 38 0 85 -35 85 -65 0 -12 17 -15 101 -15 l101 0 -7 37 c-10 54 -29
87 -75 126 -71 60 -195 82 -303 53z"/>
<path d="M2500 3891 l0 -381 90 0 90 0 0 134 0 133 108 5 c84 4 117 10 155 28
184 88 182 348 -3 434 -40 18 -68 21 -242 24 l-198 4 0 -381z m349 214 c34
-17 41 -33 41 -86 0 -29 -7 -47 -25 -64 -22 -22 -32 -25 -105 -25 l-80 0 0 95
0 95 70 0 c43 0 82 -6 99 -15z"/>
<path d="M3307 4003 c-53 -148 -114 -319 -136 -381 l-41 -113 97 3 97 3 20 63
20 62 146 0 146 0 20 -62 20 -63 98 -3 c77 -2 97 0 94 10 -3 7 -62 171 -131
363 -69 193 -129 358 -132 368 -6 15 -22 17 -115 17 l-107 0 -96 -267z m251
-71 c23 -70 42 -133 42 -140 0 -8 -26 -12 -90 -12 -49 0 -90 3 -90 6 0 16 84
274 90 274 3 0 25 -58 48 -128z"/>
<path d="M4220 4255 c-73 -21 -152 -74 -195 -133 -123 -168 -88 -439 71 -555
74 -54 135 -72 239 -71 112 1 183 26 254 90 44 40 101 132 101 163 0 7 -35 11
-97 11 l-98 0 -29 -36 c-51 -65 -142 -82 -221 -44 -70 34 -105 100 -105 200 0
100 35 166 105 200 79 38 170 21 221 -44 l29 -36 98 0 c62 0 97 4 97 11 0 5
-11 34 -25 64 -31 65 -98 128 -172 162 -70 32 -192 40 -273 18z"/>
<path d="M4810 3885 l0 -385 90 0 90 0 0 385 0 385 -90 0 -90 0 0 -385z"/>
<path d="M5130 3885 l0 -385 235 0 235 0 0 75 0 75 -145 0 -145 0 0 85 0 85
125 0 125 0 0 70 0 69 -122 3 -123 3 -3 78 -3 77 146 0 145 0 0 75 0 75 -235
0 -235 0 0 -385z"/>
<path d="M5720 3885 l0 -385 90 0 90 0 2 237 3 236 155 -236 155 -237 93 0 92
0 0 385 0 385 -90 0 -90 0 0 -235 c0 -129 -3 -235 -7 -234 -5 0 -76 105 -158
232 l-151 232 -92 3 -92 3 0 -386z"/>
<path d="M6490 4195 l0 -75 105 0 105 0 0 -310 0 -310 90 0 90 0 0 310 0 310
100 0 100 0 0 75 0 75 -295 0 -295 0 0 -75z"/>
<path d="M7180 3885 l0 -385 230 0 230 0 0 75 0 75 -140 0 -140 0 0 85 0 85
125 0 125 0 0 70 0 69 -122 3 -123 3 -3 78 -3 77 141 0 140 0 0 75 0 75 -230
0 -230 0 0 -385z"/>
</g>
</svg>
